<?xml version="1.0" encoding="utf-8"?>
<!-- Generator: Adobe Illustrator 26.5.0, SVG Export Plug-In . SVG Version: 6.00 Build 0)  -->
<svg version="1.1" id="Layer_1" xmlns="http://www.w3.org/2000/svg" xmlns:xlink="http://www.w3.org/1999/xlink" x="0px" y="0px"
	 viewBox="0 0 507 408.5" style="enable-background:new 0 0 507 408.5;" xml:space="preserve">
<style type="text/css">
	.st0{fill:#BBBFED;}
	.st1{fill:#707BB2;}
	.st2{fill:#33263F;}
	.st3{fill:#454869;}
	.st4{fill:#332740;}
	.st5{fill:#7D899C;}
	.st6{fill:#347749;}
	.st7{fill:#47A264;}
	.st8{fill:#FFFFFF;}
	.st9{fill:#292E2B;}
	.st10{fill:#414242;}
	.st11{fill:#BABEEC;}
	.st12{fill:url(#SVGID_1_);}
</style>
<g>
	<g>
		<g>
			<polygon class="st0" points="77.6,310.8 178.2,368.8 178.2,408.3 77.6,349 			"/>
			<polygon class="st1" points="77.6,310.8 339.3,174.4 449.3,217.1 178.2,368.8 			"/>
			<polygon class="st2" points="449.3,217.1 178.2,368.8 178.2,408.3 449.3,253.8 			"/>
			<path class="st3" d="M255.8,174.8L90.8,272c0,0-19.2,12.1-8.2,32l101.1,59.7c0,0-17-11.4,1.3-26.7l172.5-100.1L255.8,174.8z"/>
			<path class="st4" d="M357.6,236.8L180.8,337.3c0,0-11.7,19.6,2.9,26.4l173.8-98.2V236.8z"/>
			<path class="st5" d="M357.6,241.2l-174.4,99.1c0,0-8.3,13.8,2.1,18.7l172-97.4L357.6,241.2z"/>
			<ellipse class="st2" cx="189.3" cy="347.5" rx="5.2" ry="6.5"/>
			<g>
				<path class="st6" d="M150.4,259l0,10.8l36,23.1c0,0,13.7,4.3,21.9,0c8.2-4.3,61.5-34.9,61.5-34.9l3.8-3.1l1.3-10.2L150.4,259z"
					/>
				<path class="st7" d="M169.5,243.4l48.2-24c0,0,10.2-6.4,22.9,0c12.7,6.4,30.3,17.3,30.3,17.3s9.9,7.9-2,14.3
					c-12,6.4-59.7,34.7-59.7,34.7s-14,4.8-23.2,0c-9.2-4.8-29.8-17.3-29.8-17.3s-13.3-8.8,0-17.6L169.5,243.4z"/>
				<path class="st6" d="M150.4,249.1l0,10.8l36,23.1c0,0,13.7,4.3,21.9,0c8.2-4.3,61.5-34.9,61.5-34.9l3.8-3.1l1.3-10.2
					L150.4,249.1z"/>
				<path class="st7" d="M169.5,233.5l48.2-24c0,0,10.2-6.4,22.9,0c12.7,6.4,30.3,17.3,30.3,17.3s9.9,7.9-2,14.3
					c-12,6.4-59.7,34.7-59.7,34.7s-14,4.8-23.2,0c-9.2-4.8-29.8-17.3-29.8-17.3s-13.3-8.8,0-17.6L169.5,233.5z"/>
				<path class="st6" d="M150.4,239.2l0,10.8l36,23.1c0,0,13.7,4.3,21.9,0c8.2-4.3,61.5-34.9,61.5-34.9l3.8-3.1l1.3-10.2
					L150.4,239.2z"/>
				<path class="st7" d="M169.5,223.7l48.2-24c0,0,10.2-6.4,22.9,0C253.4,206.1,271,217,271,217s9.9,7.9-2,14.3
					c-12,6.4-59.7,34.7-59.7,34.7s-14,4.8-23.2,0c-9.2-4.8-29.8-17.3-29.8-17.3s-13.3-8.8,0-17.6L169.5,223.7z"/>
				<polygon class="st6" points="244,236.9 206,215.5 218.8,207.8 255.2,228.5 				"/>
				<ellipse transform="matrix(0.5 -0.866 0.866 0.5 -118.3433 283.5538)" class="st8" cx="186.4" cy="244.3" rx="3.1" ry="11.3"/>
				<path class="st9" d="M160.8,266.3l20.7,13.5l-4,2.5l-17.1-9.9C160.4,272.5,158.5,269.1,160.8,266.3z"/>
				<path class="st10" d="M160.8,266.3l20.5,13.4l-3.7,0.8l-15.9-8.7C161.8,271.8,158.5,269.1,160.8,266.3z"/>
			</g>
		</g>
		<polygon class="st11" points="369.6,382.2 396.1,395.9 396.1,154 91.1,9.3 91.1,264.3 114.9,250 114.9,59.6 371.4,180.5 		"/>
		<polygon class="st3" points="114.9,60.5 140.5,71.7 140.5,234.8 114.9,250 		"/>
		<polygon class="st3" points="91.1,9.3 111.2,0 420.3,141.7 396.1,154 		"/>
		<polygon class="st2" points="396.1,154 418.6,141.8 420.2,371.7 396.1,395.9 		"/>
	</g>
	
		<linearGradient id="SVGID_1_" gradientUnits="userSpaceOnUse" x1="-96.6034" y1="-223.6666" x2="31.0878" y2="-109.8619" gradientTransform="matrix(-1.0197 -1.0197 1.0402 -1.0402 384.4362 83.3845)">
		<stop  offset="0.6704" style="stop-color:#D14B64;stop-opacity:0"/>
		<stop  offset="1" style="stop-color:#D14B64"/>
	</linearGradient>
	<polygon class="st12" points="67.8,284.5 245.8,106.5 420.2,280.9 	"/>
	<path class="st5" d="M246.5,140.4H245c-3.8,0-6.8-3-6.8-6.8v-26.6c0-3.8,3-6.8,6.8-6.8h1.5c3.8,0,6.8,3,6.8,6.8v26.6
		C253.3,137.3,250.3,140.4,246.5,140.4z"/>
</g>
</svg>
