<?xml version="1.0" encoding="utf-8"?>
<!-- Generator: Adobe Illustrator 26.5.0, SVG Export Plug-In . SVG Version: 6.00 Build 0)  -->
<svg version="1.1" id="Layer_1" xmlns="http://www.w3.org/2000/svg" xmlns:xlink="http://www.w3.org/1999/xlink" x="0px" y="0px"
	 viewBox="0 0 680.3 680.3" style="enable-background:new 0 0 680.3 680.3;" xml:space="preserve">
<style type="text/css">
	.st0{fill:#1C1C1C;}
	.st1{fill:#6F7AB2;}
	.st2{fill:#BBBFED;}
	.st3{fill:#33263F;}
	.st4{fill:#454869;}
	.st5{fill:#4B5DA9;}
</style>
<g>
	
		<ellipse transform="matrix(0.9531 -0.3027 0.3027 0.9531 -173.0644 157.3528)" class="st0" cx="421" cy="636.9" rx="31.3" ry="19.7"/>
	<ellipse class="st0" cx="245.3" cy="656.9" rx="18.9" ry="19.7"/>
	<polygon class="st1" points="119.6,566 83.4,581.5 315,644.7 586.4,531.5 559,518.3 	"/>
	<polygon class="st2" points="83.4,581.5 83.4,611.1 313.9,680.6 315,644.7 	"/>
	<polygon class="st3" points="586.4,531.5 315,644.7 313.9,680.6 586.4,563.4 	"/>
	<path class="st4" d="M536.6,20.6L372.2,2.9c0,0-27.1-6.5-56.6,0s-208,39.5-208,39.5s-33.6,7.1-10,11.2s179.8,24.8,179.8,24.8
		s23,5.9,69-3.5s190.4-43,190.4-43S572.8,24.5,536.6,20.6z"/>
	<path class="st4" d="M89.1,65.4"/>
	<polygon class="st2" points="88.2,50.7 119.6,566 309.5,616.4 300,80.1 	"/>
	<path class="st0" d="M151.2,83.6l75,11c0,0,13.5,2.5,13.9,9.6c0,0,1.8,12.1-6.8,11.4c-8.5-0.7-76.7-11-76.7-11s-13.1-2.5-12.1-12.8
		C145.5,81.5,149.5,83.4,151.2,83.6z"/>
	<polygon class="st3" points="552.7,28.7 559,518.3 309.5,616.4 300,80.1 	"/>
	<path class="st0" d="M248.1,224.7l-107.9-26.1c-8.3-1.5-15.1-7.9-15.1-14.1l-3.9-51.9c0-6.3,6.8-10.1,15.1-8.6l111.8,20.6
		c8.3,1.5,15.1,7.9,15.1,14.1v57.4C263.2,222.4,256.5,226.2,248.1,224.7z"/>
	<path class="st5" d="M271.9,377.5l-136.1-32.9c-10.5-1.9-19.1-9.9-19.1-17.8l-4.9-65.5c0-7.9,8.5-12.7,19.1-10.8l141,26
		c10.5,1.9,19.1,9.9,19.1,17.8v72.4C290.9,374.6,282.4,379.4,271.9,377.5z"/>
	<path class="st5" d="M271.9,490.6l-136.1-32.9c-10.5-1.9-12.5-11.6-12.5-19.5l-4.3-64.7c0-7.9-0.8-18.4,9.7-16.4l143.2,32.6
		c10.5,1.9,19.1,9.9,19.1,17.8v72.4C290.9,487.7,282.4,492.5,271.9,490.6z"/>
</g>
</svg>
