<?xml version="1.0" encoding="utf-8"?>
<!-- Generator: Adobe Illustrator 26.5.0, SVG Export Plug-In . SVG Version: 6.00 Build 0)  -->
<svg version="1.1" id="Layer_1" xmlns="http://www.w3.org/2000/svg" xmlns:xlink="http://www.w3.org/1999/xlink" x="0px" y="0px"
	 viewBox="0 0 56.7 56.7" style="enable-background:new 0 0 56.7 56.7;" xml:space="preserve">
<style type="text/css">
	.st0{fill:#454869;}
	.st1{fill:#BBBFED;}
	.st2{fill:#FFFFFF;}
	.st3{fill:#33263F;}
	.st4{fill:#7D899C;}
	.st5{fill:#D14B64;}
</style>
<g>
	<g>
		<g>
			<path class="st0" d="M41.1,9.2H36l-0.2-1.5H21.1L21,9.2h-5.1c-1.3,0-2.3,1-2.3,2.3v19.7c0,1.3,1,2.3,2.3,2.3H41
				c1.3,0,2.3-1,2.3-2.3V11.5C43.4,10.2,42.3,9.2,41.1,9.2z"/>
			<path class="st1" d="M38.5,30.4H18.1c-0.9,0-1.6-0.7-1.6-1.6V13.3c0-0.9,0.7-1.6,1.6-1.6h20.4c0.9,0,1.6,0.7,1.6,1.6v15.5
				C40.1,29.7,39.4,30.4,38.5,30.4z"/>
			<circle class="st2" cx="28.3" cy="16.9" r="3.6"/>
			<path class="st2" d="M35.7,26.7c0,0-1.9-3.8-2.2-4.3s-4.7-0.6-5.2-0.6l0,0l0,0l0,0l0,0c-0.5,0-4.9,0.1-5.2,0.6
				c-0.3,0.5-2.2,4.3-2.2,4.3s-0.7,1.5,0.5,2.1h1.3l2.1-2.1h3.6l0,0H32l2.1,2.1h1.3C36.5,28.2,35.7,26.7,35.7,26.7z"/>
			<path class="st3" d="M28.4,37.7l-3.8-0.2l0.5,12.3c0,0,0.3,1.4,1.3,1.4h2l0,0h2c1,0,1.3-1.4,1.3-1.4l0.5-12.3L28.4,37.7z"/>
			<path class="st4" d="M33,31.3h-4.6h-4.6L23.1,33l1.5,4.8c0,0,2.3,0.5,3.8,0.5c1.4,0,3.8-0.5,3.8-0.5l1.5-4.8L33,31.3z"/>
			<circle class="st1" cx="26.3" cy="33.5" r="1.2"/>
			<circle class="st1" cx="30.5" cy="33.5" r="1.2"/>
			<circle class="st1" cx="28.3" cy="36.3" r="1.2"/>
			<g>
				<g>
					<path class="st5" d="M30.5,21.5h-1.9v2h-0.7v-2H26v-0.6h1.9v-2h0.7v2h1.9V21.5z"/>
				</g>
				<polygon class="st5" points="20.6,13.3 18.7,13.3 18.2,13.3 18.2,13.7 18.2,15.6 18.7,15.6 18.7,13.7 20.6,13.7 				"/>
				<polygon class="st5" points="38.3,15.6 38.3,13.7 38.3,13.3 37.9,13.3 36,13.3 36,13.7 37.9,13.7 37.9,15.6 				"/>
				<polygon class="st5" points="36,29 37.9,29 38.3,29 38.3,28.6 38.3,26.7 37.9,26.7 37.9,28.6 36,28.6 				"/>
				<polygon class="st5" points="18.2,26.7 18.2,28.6 18.2,29 18.7,29 20.6,29 20.6,28.6 18.7,28.6 18.7,26.7 				"/>
			</g>
		</g>
		<path class="st5" d="M28.3,15c-3.4,0-6.1,2.7-6.1,6.1s2.7,6.1,6.1,6.1s6.1-2.7,6.1-6.1C34.4,17.8,31.7,15,28.3,15z M28.3,26.4
			c-2.9,0-5.2-2.3-5.2-5.2s2.3-5.2,5.2-5.2s5.2,2.3,5.2,5.2C33.5,24,31.2,26.4,28.3,26.4z"/>
	</g>
</g>
</svg>
