<?xml version="1.0" encoding="utf-8"?>
<!-- Generator: Adobe Illustrator 26.5.0, SVG Export Plug-In . SVG Version: 6.00 Build 0)  -->
<svg version="1.1" id="Layer_1" xmlns="http://www.w3.org/2000/svg" xmlns:xlink="http://www.w3.org/1999/xlink" x="0px" y="0px"
	 viewBox="0 0 507 408.5" style="enable-background:new 0 0 507 408.5;" xml:space="preserve">
<style type="text/css">
	.st0{fill:#1C1C1C;}
	.st1{fill:#BBBFED;}
	.st2{fill:#454869;}
	.st3{fill:#7D899C;}
	.st4{fill:#717DAC;}
	.st5{fill:#3E374B;}
	.st6{fill:#33263F;}
	.st7{fill:#FFFFFF;}
</style>
<g>
	<g>
		
			<ellipse transform="matrix(0.9882 -0.1531 0.1531 0.9882 -41.2241 72.8516)" class="st0" cx="452.4" cy="304.1" rx="29.8" ry="22"/>
		
			<ellipse transform="matrix(0.9882 -0.1531 0.1531 0.9882 -41.2241 72.8516)" class="st1" cx="452.4" cy="304.1" rx="16.7" ry="12.4"/>
	</g>
	<g>
		
			<ellipse transform="matrix(0.9882 -0.1531 0.1531 0.9882 -56.594 36.5607)" class="st0" cx="209.1" cy="385.7" rx="29.8" ry="22"/>
		
			<ellipse transform="matrix(0.9882 -0.1531 0.1531 0.9882 -56.594 36.5607)" class="st1" cx="209.1" cy="385.7" rx="16.7" ry="12.4"/>
	</g>
	<polygon class="st2" points="0,167.4 422.8,82.4 422.8,170.8 141.5,239.4 	"/>
	<polygon class="st3" points="417.6,79.7 0,167.4 4.1,169.5 422.8,82.4 	"/>
	<polygon class="st1" points="146.4,0 257,48.7 113.9,142.9 39.1,110.6 	"/>
	<polygon class="st4" points="39.1,110.6 113.9,142.9 113.9,225.4 42.2,188.9 	"/>
	<polygon class="st5" points="113.9,142.9 257,48.7 316.5,196.4 141.5,239.4 113.9,225.4 	"/>
	<polygon class="st1" points="0,167.4 141.5,239.4 141.5,405.6 9.8,314.5 	"/>
	<polygon class="st6" points="141.5,239.4 507,148.6 507,281.1 141.5,405.6 	"/>
	<polygon class="st3" points="500.4,144.9 141.5,233.9 141.5,239.4 507,148.6 	"/>
	<polygon class="st7" points="6.7,166.1 141.5,233.9 141.5,239.4 0,167.4 	"/>
	<path class="st6" d="M157.8,86.9l-46.6-21.2c-5.8-4.8-7-12.3-2.6-16.7l33.3-33.6c4.4-4.4,11.5-1.9,18.6,0.6l64,24.3
		c5.8,4.8,7,12.3,2.6,16.7l-50.8,30.5C169.9,91.6,164.7,90.7,157.8,86.9z"/>
</g>
</svg>
