<?xml version="1.0" encoding="utf-8"?>
<!-- Generator: Adobe Illustrator 26.5.0, SVG Export Plug-In . SVG Version: 6.00 Build 0)  -->
<svg version="1.1" id="Layer_1" xmlns="http://www.w3.org/2000/svg" xmlns:xlink="http://www.w3.org/1999/xlink" x="0px" y="0px"
	 viewBox="0 0 680.3 680.3" style="enable-background:new 0 0 680.3 680.3;" xml:space="preserve">
<style type="text/css">
	.st0{fill:#BBBFED;}
	.st1{fill:#7D899C;}
	.st2{fill:#33263F;}
	.st3{fill:#454869;}
	.st4{fill:#83869D;}
	.st5{fill:#D14B64;}
</style>
<g>
	<polygon class="st0" points="10.1,97.7 35.8,110.2 35.8,118.2 307.9,217.3 307.9,207.7 330.7,217.3 330.7,680.3 310.1,668 
		310.1,262 33.6,163.7 33.6,578.9 10.1,565 	"/>
	<polygon class="st1" points="307.9,207.7 476,141.4 497.8,149.1 330.7,217.3 	"/>
	<polygon class="st1" points="10.1,97.7 204.1,21.4 226.1,28.4 35.8,110.2 	"/>
	<polygon class="st2" points="497.8,149.1 497.8,615 330.7,680.3 330.7,217.3 	"/>
	<path class="st1" d="M226.1,34.5"/>
	<path class="st1" d="M484.1,131.4"/>
	<polygon class="st2" points="226.1,34.5 226.1,28.4 35.8,110.2 35.8,118.2 226.1,37.9 	"/>
	<polygon class="st3" points="470.2,143.9 226.1,37.9 35.8,118.2 307.9,217.3 307.9,207.7 	"/>
	<polygon class="st3" points="33.6,163.7 54.5,171.2 54.5,545.8 175.6,496.3 170.4,212.3 191,219.7 197.2,511.5 33.6,578.9 	"/>
	<polygon class="st4" points="54.5,171.2 54.5,545.8 175.6,496.3 170.4,212.3 	"/>
	<polygon class="st5" points="309.8,511.2 177,575.5 160.3,553.2 71.9,637.8 210.5,617.9 192.3,594.6 310.1,538.3 	"/>
	<polygon class="st5" points="497.8,418.8 562.9,382.4 545.4,359.9 679,339.2 599.6,424.4 579,397.7 497.8,448.4 	"/>
</g>
</svg>
