<?xml version="1.0" encoding="utf-8"?>
<!-- Generator: Adobe Illustrator 26.5.0, SVG Export Plug-In . SVG Version: 6.00 Build 0)  -->
<svg version="1.1" id="Layer_1" xmlns="http://www.w3.org/2000/svg" xmlns:xlink="http://www.w3.org/1999/xlink" x="0px" y="0px"
	 viewBox="0 0 680.3 680.3" style="enable-background:new 0 0 680.3 680.3;" xml:space="preserve">
<style type="text/css">
	.st0{fill:#4B5DA9;}
	.st1{fill:#454869;}
	.st2{fill:#7D899C;}
	.st3{fill:#BBBFED;}
	.st4{fill:#C3C5DF;}
	.st5{fill:#32253E;}
	.st6{fill:#BABEEC;}
	.st7{fill:#33263F;}
	.st8{fill:#003366;}
	.st9{fill:#3366CC;}
	.st10{fill:#660033;}
	.st11{fill:#D14B64;}
</style>
<g>
	<g>
		<polygon class="st0" points="306.3,168.9 488.5,240.2 498.8,571 306.3,510.6 		"/>
		<polygon class="st1" points="118.4,80.6 310.8,0 607.6,110.9 427.4,198.8 		"/>
		<polygon class="st1" points="316.6,186.6 315.5,501 140.3,557 140.3,116.9 		"/>
		<polygon class="st2" points="315.5,241.3 140.3,297.4 405.3,398.3 405.3,274.7 		"/>
		<polygon class="st3" points="140.3,297.4 140.3,312.8 405.3,412.8 405.3,398.3 		"/>
		<polygon class="st2" points="315.5,501 140.3,557 405.3,658 405.3,534.4 		"/>
		<polygon class="st3" points="140.3,557 140.3,572.5 405.3,672.4 405.3,658 		"/>
		<g>
			<polygon class="st3" points="246.4,213.3 182.7,242.7 292.9,288.8 346.5,262.7 			"/>
			<polygon class="st4" points="182.7,242.7 292.9,288.8 294.3,335.4 182.7,283.9 			"/>
			<polygon class="st5" points="346.5,262.7 292.9,288.8 294.3,335.4 346.5,307.7 			"/>
		</g>
		<g>
			<polygon class="st3" points="281.5,458.9 195,498.9 344.7,561.5 417.6,526 			"/>
			<polygon class="st4" points="195,498.9 344.7,561.5 346.6,614.7 195,554.8 			"/>
			<polygon class="st5" points="417.6,526 344.7,561.5 346.6,614.7 417.6,587.1 			"/>
		</g>
		<g>
			<polygon class="st3" points="374.8,267.7 311.1,297.2 421.3,343.2 475,317.2 			"/>
			<polygon class="st4" points="311.1,297.2 421.3,343.2 422.7,389.9 311.1,338.3 			"/>
			<polygon class="st5" points="475,317.2 421.3,343.2 422.7,389.9 475,362.1 			"/>
		</g>
		<polygon class="st6" points="118.4,81.6 427.4,198.8 427.4,680.3 405.3,672.4 405.3,220.5 140.3,116.9 140.3,572.2 115.4,561.4 		
			"/>
		<polygon class="st7" points="607.6,110.9 608.2,553.4 427.4,680.3 427.4,198.8 		"/>
	</g>
	<g>
		<path class="st8" d="M233,258.5c7.6-22.2,7.3-35.1-0.9-45.8l-28.9-31.6c7.1,9.5,9.7,20.4,0.9,45.8c7.1,7.8,16.6,18.2,23.7,25.9
			C229.4,254.5,231.4,256.8,233,258.5"/>
		<path class="st9" d="M232.1,212.6c-20.3-18.2-62.9-4.4-113.9,36.9c4,4.4,9.4,10.2,13.4,14.6c-12.9,5.2-52,20.9-98.3,55.7
			c5.1-39.9,16.7-71.5,42.7-116.5c4,4.4,9.4,10.2,13.4,14.6c51.1-41.3,93.7-55.1,113.9-36.9L232.1,212.6"/>
	</g>
	<g>
		<path class="st8" d="M361.7,317.5c7.6-22.2,7.3-35.1-0.9-45.8L331.9,240c7.1,9.5,9.7,20.4,0.9,45.8c7.1,7.8,16.6,18.2,23.7,25.9
			C358.1,313.5,360.2,315.8,361.7,317.5"/>
		<path class="st9" d="M360.8,271.6c-20.3-18.2-62.9-4.4-113.9,36.9c4,4.4,9.4,10.2,13.4,14.6c-12.9,5.2-52,20.9-98.3,55.7
			c5.1-39.9,16.7-71.5,42.7-116.5c4,4.4,9.4,10.2,13.4,14.6c51.1-41.3,93.7-55.1,113.9-36.9L360.8,271.6"/>
	</g>
	<g>
		<path class="st10" d="M165.9,507.6l-56-11.9c-61.2-16.4-74.2-88.4-76.7-110.1c27.3-2.3,27.3-2.3,54.8-4.7
			C91.8,448.7,120.9,496,165.9,507.6"/>
		<path class="st11" d="M165.9,507.6c17.4,2.7,32.6,2.2,54.9-9.1c6.1,2.5,14.2,5.8,20.4,8.2c22.5-33.6,22.5-80.3,22.5-95.6
			c-15.7,12.3-52.3,41.1-107.8,59.1c6.2,2.8,14.4,6.5,20.6,9.3c-10.6,6.8-35.6,22.6-66.7,16.2L165.9,507.6"/>
	</g>
	<g>
		<path class="st10" d="M200.1,633l-56-11.9C82.9,604.7,69.9,532.7,67.4,511c27.3-2.3,27.3-2.3,54.8-4.7
			C126,574.1,155.1,621.4,200.1,633"/>
		<path class="st11" d="M200.1,633c17.4,2.7,32.6,2.2,54.9-9.1c6.1,2.5,14.2,5.8,20.4,8.2c22.5-33.6,22.5-80.3,22.5-95.6
			c-15.7,12.3-52.3,41.1-107.8,59.1c6.2,2.8,14.4,6.5,20.6,9.3c-10.6,6.8-35.6,22.6-66.7,16.2L200.1,633"/>
	</g>
</g>
</svg>
